<svg id="deutsch" xmlns="http://www.w3.org/2000/svg" viewBox="0 0 374.72 88.76">
    <defs>
        <style>.cls-1{fill:#ffffff;}.cls-2{fill:#a62055;}</style>
    </defs>
    <title>FIZ_Logo_dt</title>
    <path class="cls-1"
        d="M19.7,39.33l-3.81,9a24.35,24.35,0,0,1,19-44.82l-3.8,9A14.61,14.61,0,0,0,19.7,39.33" />
    <path class="cls-2" d="M25.41,30.75a4.87,4.87,0,1,0-4.87-4.87,4.87,4.87,0,0,0,4.87,4.87" />
    <path class="cls-1" d="M58.47,30.86l-.64,4.52H49v6.36h7.08v4.56H49V58.67h-5.6V30.86Z" />
    <path class="cls-1" d="M68.07,30.86V58.67H62.22V30.86Z" />
    <path class="cls-1"
        d="M91.23,30.86v4L80.91,52.31a15.85,15.85,0,0,1-1.44,2s1.64-.16,2.76-.16h9.36l-1.44,4.56H72.79V54.75L83,37.82a28.71,28.71,0,0,1,1.72-2.52,18.45,18.45,0,0,1-2.84.2H73.35l1.24-4.64Z" />
    <path class="cls-1"
        d="M101.91,31.66h3.32V59.11h-3.32Zm14,0h4.2l-11,12.88,11,14.56h-4.2L105.39,44.59Z" />
    <path class="cls-1"
        d="M122.75,41.35a15,15,0,0,1,8.36-2.68c2.76,0,4.68,1.08,5.52,3.12a11.83,11.83,0,0,1,.44,4.4l-.16,6.56c-.08,3.24.12,4.08,1.6,4.88l-1.6,2.24a4.09,4.09,0,0,1-2.72-2.92c-1.92,1.92-3.48,2.68-5.76,2.68-4.92,0-6.4-3-6.4-5.68,0-4.52,3.88-7.16,10.56-7.16.84,0,1.4,0,1.4,0v-1.4c0-1.76-.08-2.48-.64-3.12a3.27,3.27,0,0,0-2.68-1.08,11,11,0,0,0-6.36,2.36ZM133.91,49c-.52,0-1-.08-1.56-.08-5,0-6.84,1.72-6.84,4.76,0,2.36,1.16,3.64,3.44,3.64a5.47,5.47,0,0,0,4.84-3.12Z" />
    <path class="cls-1"
        d="M143.07,39.51l3.12-.84a7.19,7.19,0,0,1,.64,3.24,7.22,7.22,0,0,1,5.6-3.32,3.75,3.75,0,0,1,1.08.2l-1.28,3.4a2.66,2.66,0,0,0-.88-.16A4.75,4.75,0,0,0,148,43.47a3.59,3.59,0,0,0-1.16,3.16V59.11h-3.12V43.75A10.07,10.07,0,0,0,143.07,39.51Z" />
    <path class="cls-1"
        d="M160.27,55.11c0,1.56.24,2,1.12,2a2.25,2.25,0,0,0,.4-.08l.64,2a3.94,3.94,0,0,1-2,.44,3.34,3.34,0,0,1-2.36-.84,3.46,3.46,0,0,1-1-2.84V34.7a14.49,14.49,0,0,0-.48-4.08l3.12-.6a17.53,17.53,0,0,1,.52,4.72Z" />
    <path class="cls-1"
        d="M179.12,40,178,42.35a11.33,11.33,0,0,0-5-1.44c-2.28,0-3.76,1.32-3.76,3.28,0,1.52.76,2.44,2.88,2.88l2.64.56c3.6.76,5.32,2.6,5.32,5.56,0,3.88-3,6.52-7.52,6.52a14.76,14.76,0,0,1-7.32-2l1.2-2.32a12,12,0,0,0,6.32,1.88c2.44,0,4-1.32,4-3.44,0-1.8-1-2.8-3.28-3.28L171,50c-3.28-.68-5-2.72-5-5.48,0-3.6,2.92-6.12,7.08-6.12A13,13,0,0,1,179.12,40Z" />
    <path class="cls-1"
        d="M184.51,39.51l3.12-.84a7.19,7.19,0,0,1,.64,3.24,7.22,7.22,0,0,1,5.6-3.32,3.75,3.75,0,0,1,1.08.2l-1.28,3.4a2.66,2.66,0,0,0-.88-.16,4.75,4.75,0,0,0-3.32,1.44,3.59,3.59,0,0,0-1.16,3.16V59.11h-3.12V43.75A10.07,10.07,0,0,0,184.51,39.51Z" />
    <path class="cls-1"
        d="M198.44,39.35l3.08-.6V53.07c0,1.88.28,2.72,1.2,3.36a4.47,4.47,0,0,0,2.44.68,6.1,6.1,0,0,0,5.08-3.6V39.39l3.08-.52V53.39c0,2.52.36,3.52,1.36,4.44l-2,2.12a5.15,5.15,0,0,1-2.16-3.2,7.39,7.39,0,0,1-6.32,3c-2.52,0-4.4-1.08-5.24-2.84a7.14,7.14,0,0,1-.52-3Z" />
    <path class="cls-1"
        d="M219.92,30.46l3.12-.6a17.56,17.56,0,0,1,.52,4.72v4.64c0,1.28-.12,2.72-.12,2.72,1.8-1.68,4.08-3.16,6.64-3.16,2.4,0,4.56,1.32,5.12,3.16a8.88,8.88,0,0,1,.32,2.88V59.11h-3.08V45.35c0-1.48-.2-2.4-.76-3a3.3,3.3,0,0,0-2.32-.8c-1.92,0-4.08,1.24-5.8,3.36V59.11h-3.12V34.54A13.47,13.47,0,0,0,219.92,30.46Z" />
    <path class="cls-1"
        d="M255,55.07l1.2,2a10,10,0,0,1-6.72,2.48c-5.52,0-8.84-4-8.84-10.6,0-3.36.72-5.52,2.4-7.52a7.82,7.82,0,0,1,11.36-.6c1.72,1.76,2.2,3.64,2.28,8.4v.44H244.2v.48a8,8,0,0,0,.92,4.36,5.64,5.64,0,0,0,5,2.44A6.86,6.86,0,0,0,255,55.07ZM244.2,47.31h9.12a8.55,8.55,0,0,0-.92-4.44,4.24,4.24,0,0,0-3.6-1.76C246,41.11,244.36,43.19,244.2,47.31Z" />
    <path class="cls-1" d="M43.37,74.11h1.42V84.8h4.7L49.3,86H43.37Z" />
    <path class="cls-1"
        d="M56.28,84.25l.52.87a4.31,4.31,0,0,1-2.91,1.07c-2.39,0-3.83-1.73-3.83-4.59a4.61,4.61,0,0,1,1-3.26A3.39,3.39,0,0,1,56,78.08c.75.76,1,1.58,1,3.64v.19H51.62v.21A3.45,3.45,0,0,0,52,84a2.44,2.44,0,0,0,2.15,1.06A3,3,0,0,0,56.28,84.25Zm-4.66-3.36h4a3.7,3.7,0,0,0-.4-1.92,1.84,1.84,0,0,0-1.56-.76C52.38,78.2,51.69,79.1,51.62,80.89Z" />
    <path class="cls-1"
        d="M60.17,73.64a1.06,1.06,0,1,1-1.06,1.08A1.07,1.07,0,0,1,60.17,73.64Zm-.73,3.76,1.4-.23V86h-1.4Z" />
    <path class="cls-1"
        d="M63.55,73.59l1.35-.26a7.58,7.58,0,0,1,.23,2v2c0,.43,0,1,0,1a3.32,3.32,0,0,1,2.48-1.16c2.06,0,3.35,1.68,3.35,4.39s-1.37,4.65-3.43,4.65a3.2,3.2,0,0,1-2.37-1.14,2.28,2.28,0,0,1-.24.94H63.51a5.31,5.31,0,0,0,.26-2.15V75.36A5.84,5.84,0,0,0,63.55,73.59ZM65.11,84a2.85,2.85,0,0,0,2.13,1,2,2,0,0,0,1.56-.76,5,5,0,0,0,.61-2.77,3.82,3.82,0,0,0-.5-2.32,2,2,0,0,0-1.63-.75,2.81,2.81,0,0,0-2.17,1.13Z" />
    <path class="cls-1"
        d="M72.89,77.52l1.32-.36a3.48,3.48,0,0,1,.31,1.35,3.87,3.87,0,0,1,2.72-1.33,2.29,2.29,0,0,1,2.11,1.27,2.49,2.49,0,0,1,.21,1V86H78.19V80.16c0-.92-.07-1.14-.31-1.44a1.26,1.26,0,0,0-1-.36,4,4,0,0,0-2.39,1.21V86H73.22V79.34A4,4,0,0,0,72.89,77.52Z" />
    <path class="cls-1"
        d="M83.12,73.64a1.06,1.06,0,1,1-1.06,1.08A1.07,1.07,0,0,1,83.12,73.64Zm-.73,3.76,1.4-.23V86h-1.4Z" />
    <path class="cls-1" d="M86.17,77.37h5.75v1.11L87.43,85H92.2l-.64,1H85.81V85l4.7-6.52H86.17Z" />
    <path class="cls-1" d="M93.69,80.71H97V82H93.69Z" />
    <path class="cls-1" d="M99.53,74.11h1.39V86H99.53Z" />
    <path class="cls-1"
        d="M103.64,77.52l1.32-.36a3.49,3.49,0,0,1,.31,1.35A3.87,3.87,0,0,1,108,77.18a2.29,2.29,0,0,1,2.11,1.27,2.49,2.49,0,0,1,.21,1V86h-1.37V80.16c0-.92-.07-1.14-.31-1.44a1.26,1.26,0,0,0-1-.36,4,4,0,0,0-2.39,1.21V86H104V79.34A4,4,0,0,0,103.64,77.52Z" />
    <path class="cls-1"
        d="M118.38,77.73l-.5,1a4.9,4.9,0,0,0-2.17-.62,1.45,1.45,0,0,0-1.63,1.42c0,.66.33,1.06,1.25,1.25l1.14.24c1.56.33,2.31,1.13,2.31,2.41,0,1.68-1.32,2.83-3.26,2.83a6.4,6.4,0,0,1-3.17-.87l.52-1a5.18,5.18,0,0,0,2.74.82c1.06,0,1.75-.57,1.75-1.49s-.43-1.21-1.42-1.42l-1.07-.23a2.4,2.4,0,0,1-2.18-2.37c0-1.56,1.27-2.65,3.07-2.65A5.62,5.62,0,0,1,118.38,77.73Z" />
    <path class="cls-1"
        d="M124.7,77.37l-.42,1h-1.8V84c0,1,.26,1.28,1.11,1.28a1.72,1.72,0,0,0,.85-.17l.19.87a3.2,3.2,0,0,1-1.53.35A2.52,2.52,0,0,1,122,86c-.61-.3-.83-.85-.83-1.72V78.39H120v-1h1.13c0-.83.14-2.18.14-2.18l1.42-.31a23.28,23.28,0,0,0-.17,2.5Z" />
    <path class="cls-1"
        d="M127.3,73.64a1.06,1.06,0,1,1-1.06,1.08A1.07,1.07,0,0,1,127.3,73.64Zm-.73,3.76,1.4-.23V86h-1.4Z" />
    <path class="cls-1"
        d="M134.6,77.37l-.42,1h-1.8V84c0,1,.26,1.28,1.11,1.28a1.72,1.72,0,0,0,.85-.17l.19.87a3.19,3.19,0,0,1-1.53.35,2.52,2.52,0,0,1-1.13-.24c-.61-.3-.83-.85-.83-1.72V78.39h-1.13v-1H131c0-.83.14-2.18.14-2.18l1.42-.31a23.27,23.27,0,0,0-.17,2.5Z" />
    <path class="cls-1"
        d="M136.44,77.44l1.33-.26v6.21c0,.81.12,1.18.52,1.46a1.94,1.94,0,0,0,1.06.29,2.64,2.64,0,0,0,2.2-1.56V77.45l1.34-.23v6.29c0,1.09.16,1.53.59,1.92l-.87.92a2.23,2.23,0,0,1-.94-1.39,3.2,3.2,0,0,1-2.74,1.32,2.37,2.37,0,0,1-2.27-1.23,3.1,3.1,0,0,1-.23-1.28Z" />
    <path class="cls-1"
        d="M149.66,77.37l-.42,1h-1.8V84c0,1,.26,1.28,1.11,1.28a1.72,1.72,0,0,0,.85-.17l.19.87a3.19,3.19,0,0,1-1.53.35,2.52,2.52,0,0,1-1.13-.24c-.61-.3-.83-.85-.83-1.72V78.39H145v-1h1.13c0-.83.14-2.18.14-2.18l1.42-.31a23.28,23.28,0,0,0-.17,2.5Z" />
    <path class="cls-1"
        d="M159.44,74.91a2.74,2.74,0,0,0-1.28-.4c-.76,0-1.18.54-1.18,1.53v1.33h2.39l-.42,1h-2V86h-1.42V78.39h-.83v-1h.83V76a2.42,2.42,0,0,1,1-2.12,2.38,2.38,0,0,1,1.53-.45,3.46,3.46,0,0,1,1.91.5Z" />
    <path class="cls-1"
        d="M160.5,77.44l1.33-.26v6.21c0,.81.12,1.18.52,1.46a1.94,1.94,0,0,0,1.06.29,2.64,2.64,0,0,0,2.2-1.56V77.45l1.33-.23v6.29c0,1.09.16,1.53.59,1.92l-.87.92a2.23,2.23,0,0,1-.94-1.39A3.2,3.2,0,0,1,163,86.3a2.37,2.37,0,0,1-2.27-1.23,3.1,3.1,0,0,1-.23-1.28Zm1.42-3.09a.9.9,0,0,1,0,1.8.91.91,0,0,1-.9-.92A.89.89,0,0,1,161.92,74.35Zm3.59,0a.9.9,0,0,1,0,1.8.92.92,0,0,1-.92-.92A.89.89,0,0,1,165.51,74.35Z" />
    <path class="cls-1"
        d="M169.74,77.51l1.35-.36a3.11,3.11,0,0,1,.28,1.4,3.13,3.13,0,0,1,2.43-1.44,1.62,1.62,0,0,1,.47.09l-.55,1.47a1.14,1.14,0,0,0-.38-.07,2.06,2.06,0,0,0-1.44.62,1.55,1.55,0,0,0-.5,1.37V86H170V79.34A4.37,4.37,0,0,0,169.74,77.51Z" />
    <path class="cls-1" d="M179.86,74.11h1.39V86h-1.39Z" />
    <path class="cls-1"
        d="M184,77.52l1.32-.36a3.49,3.49,0,0,1,.31,1.35,3.87,3.87,0,0,1,2.72-1.33,2.29,2.29,0,0,1,2.11,1.27,2.49,2.49,0,0,1,.21,1V86h-1.37V80.16c0-.92-.07-1.14-.31-1.44a1.26,1.26,0,0,0-1-.36,4,4,0,0,0-2.39,1.21V86H184.3V79.34A4,4,0,0,0,184,77.52Z" />
    <path class="cls-1"
        d="M197.47,74.91a2.74,2.74,0,0,0-1.28-.4c-.76,0-1.18.54-1.18,1.53v1.33h2.39l-.42,1h-2V86h-1.42V78.39h-.83v-1h.83V76a2.42,2.42,0,0,1,1-2.12,2.39,2.39,0,0,1,1.53-.45A3.46,3.46,0,0,1,198,74Z" />
    <path class="cls-1"
        d="M201.67,77.11a3.42,3.42,0,0,1,3,1.51,5.48,5.48,0,0,1,.8,3.21c0,2.88-1.54,4.4-3.71,4.4-2.37,0-3.73-1.75-3.73-4.59S199.4,77.11,201.67,77.11Zm0,1.11a2,2,0,0,0-1.77.94,4.82,4.82,0,0,0-.42,2.25,6.07,6.07,0,0,0,.54,2.83,2,2,0,0,0,1.75.87,1.87,1.87,0,0,0,1.87-1.3,5.12,5.12,0,0,0,.26-1.87,6.11,6.11,0,0,0-.4-2.6A2,2,0,0,0,201.65,78.22Z" />
    <path class="cls-1"
        d="M207.61,77.51l1.35-.36a3.11,3.11,0,0,1,.28,1.4,3.13,3.13,0,0,1,2.43-1.44,1.62,1.62,0,0,1,.47.09l-.55,1.47a1.13,1.13,0,0,0-.38-.07,2.06,2.06,0,0,0-1.44.62,1.55,1.55,0,0,0-.5,1.37V86h-1.35V79.34A4.36,4.36,0,0,0,207.61,77.51Z" />
    <path class="cls-1"
        d="M213.39,77.47l1.32-.31a3.62,3.62,0,0,1,.31,1.28,3.87,3.87,0,0,1,2.51-1.3,2.12,2.12,0,0,1,2,1.44,4.15,4.15,0,0,1,2.77-1.44,2.16,2.16,0,0,1,2.17,2.34V86h-1.39V79.62c0-.83-.38-1.27-1.11-1.27s-1.39.5-2.29,1.33V86h-1.37V79.86a1.76,1.76,0,0,0-.24-1.11,1.07,1.07,0,0,0-.88-.35,3.37,3.37,0,0,0-2.2,1.14V86h-1.3V79.31A4.25,4.25,0,0,0,213.39,77.47Z" />
    <path class="cls-1"
        d="M227,78.3a6.5,6.5,0,0,1,3.62-1.16A2.34,2.34,0,0,1,233,78.49a5.12,5.12,0,0,1,.19,1.91l-.07,2.84c0,1.4.05,1.77.69,2.11l-.69,1A1.77,1.77,0,0,1,232,85.07a3.23,3.23,0,0,1-2.5,1.16c-2.13,0-2.77-1.3-2.77-2.46,0-2,1.68-3.1,4.58-3.1.36,0,.61,0,.61,0v-.61c0-.76,0-1.08-.28-1.35a1.42,1.42,0,0,0-1.16-.47,4.78,4.78,0,0,0-2.76,1Zm4.84,3.31c-.23,0-.43,0-.68,0-2.18,0-3,.75-3,2.06,0,1,.5,1.58,1.49,1.58a2.37,2.37,0,0,0,2.1-1.35Z" />
    <path class="cls-1"
        d="M239.81,77.37l-.42,1h-1.8V84c0,1,.26,1.28,1.11,1.28a1.72,1.72,0,0,0,.85-.17l.19.87a3.2,3.2,0,0,1-1.53.35,2.52,2.52,0,0,1-1.13-.24c-.61-.3-.83-.85-.83-1.72V78.39h-1.13v-1h1.13c0-.83.14-2.18.14-2.18l1.42-.31a23.21,23.21,0,0,0-.17,2.5Z" />
    <path class="cls-1"
        d="M242.4,73.64a1.06,1.06,0,1,1-1.06,1.08A1.07,1.07,0,0,1,242.4,73.64Zm-.73,3.76,1.4-.23V86h-1.4Z" />
    <path class="cls-1"
        d="M249.1,77.11a3.42,3.42,0,0,1,3,1.51,5.48,5.48,0,0,1,.8,3.21c0,2.88-1.54,4.4-3.71,4.4-2.37,0-3.73-1.75-3.73-4.59S246.83,77.11,249.1,77.11Zm0,1.11a2,2,0,0,0-1.77.94,4.82,4.82,0,0,0-.42,2.25,6.07,6.07,0,0,0,.54,2.83,2,2,0,0,0,1.75.87,1.87,1.87,0,0,0,1.87-1.3,5.12,5.12,0,0,0,.26-1.87,6.11,6.11,0,0,0-.4-2.6A2,2,0,0,0,249.08,78.22Z" />
    <path class="cls-1"
        d="M255,77.52l1.32-.36a3.48,3.48,0,0,1,.31,1.35,3.87,3.87,0,0,1,2.72-1.33,2.29,2.29,0,0,1,2.11,1.27,2.49,2.49,0,0,1,.21,1V86h-1.37V80.16c0-.92-.07-1.14-.31-1.44a1.26,1.26,0,0,0-1-.36,4,4,0,0,0-2.39,1.21V86h-1.32V79.34A4,4,0,0,0,255,77.52Z" />
    <path class="cls-1"
        d="M269.74,77.73l-.5,1a4.91,4.91,0,0,0-2.17-.62,1.45,1.45,0,0,0-1.63,1.42c0,.66.33,1.06,1.25,1.25l1.14.24c1.56.33,2.3,1.13,2.3,2.41,0,1.68-1.32,2.83-3.26,2.83a6.4,6.4,0,0,1-3.17-.87l.52-1a5.18,5.18,0,0,0,2.74.82c1.06,0,1.75-.57,1.75-1.49s-.43-1.21-1.42-1.42l-1.08-.23A2.4,2.4,0,0,1,264,79.69c0-1.56,1.27-2.65,3.07-2.65A5.62,5.62,0,0,1,269.74,77.73Z" />
    <path class="cls-1"
        d="M273.09,73.64A1.06,1.06,0,1,1,272,74.72,1.07,1.07,0,0,1,273.09,73.64Zm-.73,3.76,1.4-.23V86h-1.4Z" />
    <path class="cls-1"
        d="M276.36,77.52l1.32-.36a3.49,3.49,0,0,1,.31,1.35,3.87,3.87,0,0,1,2.72-1.33,2.29,2.29,0,0,1,2.12,1.27,2.48,2.48,0,0,1,.21,1V86h-1.37V80.16c0-.92-.07-1.14-.31-1.44a1.26,1.26,0,0,0-1-.36A4,4,0,0,0,278,79.57V86h-1.32V79.34A4,4,0,0,0,276.36,77.52Z" />
    <path class="cls-1"
        d="M289.87,74.91a2.73,2.73,0,0,0-1.28-.4c-.76,0-1.18.54-1.18,1.53v1.33h2.39l-.42,1h-2V86H286V78.39h-.83v-1H286V76a2.42,2.42,0,0,1,1-2.12,2.39,2.39,0,0,1,1.53-.45,3.46,3.46,0,0,1,1.91.5Z" />
    <path class="cls-1"
        d="M290.68,77.51l1.35-.36a3.12,3.12,0,0,1,.28,1.4,3.13,3.13,0,0,1,2.43-1.44,1.62,1.62,0,0,1,.47.09l-.55,1.47a1.14,1.14,0,0,0-.38-.07,2.06,2.06,0,0,0-1.44.62,1.55,1.55,0,0,0-.5,1.37V86H291V79.34A4.36,4.36,0,0,0,290.68,77.51Z" />
    <path class="cls-1"
        d="M296.28,78.3a6.5,6.5,0,0,1,3.62-1.16,2.35,2.35,0,0,1,2.39,1.35,5.13,5.13,0,0,1,.19,1.91l-.07,2.84c0,1.4.05,1.77.69,2.11l-.69,1a1.77,1.77,0,0,1-1.18-1.26,3.22,3.22,0,0,1-2.5,1.16c-2.13,0-2.77-1.3-2.77-2.46,0-2,1.68-3.1,4.58-3.1.36,0,.61,0,.61,0v-.61c0-.76,0-1.08-.28-1.35a1.42,1.42,0,0,0-1.16-.47,4.78,4.78,0,0,0-2.76,1Zm4.84,3.31c-.23,0-.43,0-.68,0-2.18,0-3,.75-3,2.06,0,1,.5,1.58,1.49,1.58a2.37,2.37,0,0,0,2.1-1.35Z" />
    <path class="cls-1"
        d="M310.6,77.73l-.5,1a4.91,4.91,0,0,0-2.17-.62,1.45,1.45,0,0,0-1.63,1.42c0,.66.33,1.06,1.25,1.25l1.14.24c1.56.33,2.3,1.13,2.3,2.41,0,1.68-1.32,2.83-3.26,2.83a6.4,6.4,0,0,1-3.17-.87l.52-1a5.18,5.18,0,0,0,2.74.82c1.06,0,1.75-.57,1.75-1.49s-.43-1.21-1.42-1.42l-1.08-.23a2.4,2.4,0,0,1-2.18-2.37c0-1.56,1.27-2.65,3.07-2.65A5.62,5.62,0,0,1,310.6,77.73Z" />
    <path class="cls-1"
        d="M316.93,77.37l-.42,1h-1.8V84c0,1,.26,1.28,1.11,1.28a1.72,1.72,0,0,0,.85-.17l.19.87a3.19,3.19,0,0,1-1.53.35A2.53,2.53,0,0,1,314.2,86c-.61-.3-.83-.85-.83-1.72V78.39h-1.13v-1h1.13c0-.83.14-2.18.14-2.18l1.42-.31a23.2,23.2,0,0,0-.17,2.5Z" />
    <path class="cls-1"
        d="M318.52,77.51l1.35-.36a3.12,3.12,0,0,1,.28,1.4,3.13,3.13,0,0,1,2.43-1.44,1.63,1.63,0,0,1,.47.09l-.55,1.47a1.14,1.14,0,0,0-.38-.07,2.06,2.06,0,0,0-1.44.62,1.55,1.55,0,0,0-.5,1.37V86h-1.35V79.34A4.36,4.36,0,0,0,318.52,77.51Z" />
    <path class="cls-1"
        d="M324.55,77.44l1.33-.26v6.21c0,.81.12,1.18.52,1.46a1.94,1.94,0,0,0,1.06.29,2.64,2.64,0,0,0,2.2-1.56V77.45l1.33-.23v6.29c0,1.09.16,1.53.59,1.92l-.87.92a2.23,2.23,0,0,1-.94-1.39,3.2,3.2,0,0,1-2.74,1.32,2.37,2.37,0,0,1-2.27-1.23,3.11,3.11,0,0,1-.22-1.28Z" />
    <path class="cls-1"
        d="M333.85,73.59l1.35-.26a7.58,7.58,0,0,1,.23,2V86h-1.35V75.36A5.83,5.83,0,0,0,333.85,73.59Zm4.92,3.78h1.7l-3.4,3.74L341.25,86h-1.8l-4-4.89Z" />
    <path class="cls-1"
        d="M346.36,77.37l-.42,1h-1.8V84c0,1,.26,1.28,1.11,1.28a1.72,1.72,0,0,0,.85-.17l.19.87a3.19,3.19,0,0,1-1.53.35,2.52,2.52,0,0,1-1.13-.24c-.61-.3-.83-.85-.83-1.72V78.39h-1.13v-1h1.13c0-.83.14-2.18.14-2.18l1.42-.31a23.35,23.35,0,0,0-.17,2.5Z" />
    <path class="cls-1"
        d="M348.2,77.44l1.33-.26v6.21c0,.81.12,1.18.52,1.46a1.94,1.94,0,0,0,1.06.29,2.64,2.64,0,0,0,2.2-1.56V77.45l1.33-.23v6.29c0,1.09.16,1.53.59,1.92l-.87.92a2.23,2.23,0,0,1-.94-1.39,3.2,3.2,0,0,1-2.74,1.32,2.37,2.37,0,0,1-2.27-1.23,3.11,3.11,0,0,1-.22-1.28Z" />
    <path class="cls-1"
        d="M357.44,77.51l1.35-.36a3.12,3.12,0,0,1,.28,1.4,3.13,3.13,0,0,1,2.43-1.44,1.63,1.63,0,0,1,.47.09l-.55,1.47a1.14,1.14,0,0,0-.38-.07,2.06,2.06,0,0,0-1.44.62,1.55,1.55,0,0,0-.5,1.37V86h-1.35V79.34A4.37,4.37,0,0,0,357.44,77.51Z" />
</svg>